# xmcd CD database file
#
# Track frame offsets:
#	150
#	21853
#	43235
#	77763
#
# Disc length: 4440 seconds
#
# Revision: 5
# Processed by: cddbd v1.5PL3 Copyright (c) Steve Scherf et al.
# Submitted via: CDex 1.51
#
DISCID=2a115604
DTITLE=day after tomorrow - moon gate
DYEAR=2003
DGENRE=JPop
TTITLE0=Starry Heavens
TTITLE1=ネバーランド
TTITLE2=These Days
TTITLE3=wma
EXTD=YEAR: 2003
EXTT0=
EXTT1=
EXTT2=
EXTT3=
PLAYORDER=
